<svg xmlns="http://www.w3.org/2000/svg" xmlns:xlink="http://www.w3.org/1999/xlink" width="500" zoomAndPan="magnify" viewBox="0 0 375 374.999991" height="500" preserveAspectRatio="xMidYMid meet" version="1.0"><defs><g/><clipPath id="184309b312"><path d="M 37.5 37.5 L 337.5 37.5 L 337.5 337.5 L 37.5 337.5 Z M 37.5 37.5 " clip-rule="nonzero"/></clipPath></defs><g clip-path="url(#184309b312)"><path stroke-linecap="butt" transform="matrix(1.119403, 0, 0, 1.119403, 37.500002, 37.499998)" fill-opacity="1" fill="#ffde59" fill-rule="nonzero" stroke-linejoin="miter" d="M -0.00000182017 0.00000219983 L 268.000033 0.00000219983 L 268.000033 268.000037 L -0.00000182017 268.000037 Z M -0.00000182017 0.00000219983 " stroke="#000000" stroke-width="13.4" stroke-opacity="1" stroke-miterlimit="4"/></g><g fill="#000000" fill-opacity="1"><g transform="translate(103.938971, 252.943933)"><g><path d="M 71.75 -145.171875 L 100.609375 -141.46875 C 99.148438 -138.988281 98.25 -137.4375 97.90625 -136.8125 C 97.570312 -136.195312 97.289062 -135.722656 97.0625 -135.390625 C 100.664062 -130.890625 105.140625 -126.359375 110.484375 -121.796875 C 115.828125 -117.242188 121.625 -112.941406 127.875 -108.890625 C 134.125 -104.835938 140.453125 -101.316406 146.859375 -98.328125 C 153.273438 -95.347656 159.410156 -93.070312 165.265625 -91.5 C 164.253906 -89.25 163.378906 -87.332031 162.640625 -85.75 C 161.910156 -84.175781 161.207031 -82.546875 160.53125 -80.859375 C 159.863281 -79.171875 159.019531 -77.0625 158 -74.53125 C 156.988281 -72 155.640625 -68.59375 153.953125 -64.3125 C 150.015625 -65.78125 146.5 -67.160156 143.40625 -68.453125 C 140.3125 -69.742188 137.359375 -71.148438 134.546875 -72.671875 C 131.734375 -74.191406 128.582031 -76.019531 125.09375 -78.15625 L 125.09375 -69.046875 L 43.046875 -69.046875 L 43.046875 -79.34375 C 38.992188 -76.644531 35.5625 -74.421875 32.75 -72.671875 C 29.9375 -70.929688 27.175781 -69.382812 24.46875 -68.03125 C 21.769531 -66.675781 18.507812 -65.101562 14.6875 -63.3125 C 12.769531 -67.914062 11.25 -71.539062 10.125 -74.1875 C 9 -76.832031 7.957031 -79.195312 7 -81.28125 C 6.050781 -83.363281 4.84375 -85.8125 3.375 -88.625 C 13.050781 -92.445312 22.222656 -97.253906 30.890625 -103.046875 C 39.554688 -108.847656 47.378906 -115.320312 54.359375 -122.46875 C 61.335938 -129.613281 67.132812 -137.179688 71.75 -145.171875 Z M 59.078125 -91.671875 L 106.359375 -91.671875 C 103.429688 -94.140625 100.414062 -96.753906 97.3125 -99.515625 C 94.21875 -102.273438 91.375 -105.003906 88.78125 -107.703125 C 86.195312 -110.398438 84.117188 -112.707031 82.546875 -114.625 C 79.398438 -110.800781 75.992188 -107.085938 72.328125 -103.484375 C 68.671875 -99.878906 64.253906 -95.941406 59.078125 -91.671875 Z M 128.296875 -57.234375 L 141.296875 -46.421875 C 139.492188 -40.566406 137.4375 -34.375 135.125 -27.84375 C 132.820312 -21.320312 130.546875 -15.078125 128.296875 -9.109375 C 126.046875 -3.148438 123.988281 2.050781 122.125 6.5 C 120.269531 10.945312 118.835938 14.015625 117.828125 15.703125 L 86.765625 15.703125 C 91.265625 7.253906 95.085938 -0.625 98.234375 -7.9375 C 101.390625 -15.25 104.429688 -23.238281 107.359375 -31.90625 L 21.4375 -31.90625 L 21.4375 -57.234375 Z M 128.296875 -57.234375 "/></g></g></g></svg>